# Blender 4.5.4 LTS
# www.blender.org
o Cube
v 5.000000 0.050000 -5.000000
v 5.000000 -0.050000 -5.000000
v 5.000000 0.050000 5.000000
v 5.000000 -0.050000 5.000000
v -5.000000 0.050000 -5.000000
v -5.000000 -0.050000 -5.000000
v -5.000000 0.050000 5.000000
v -5.000000 -0.050000 5.000000
v -5.000000 -0.050000 15.000065
v -5.000000 0.050000 15.000065
v 15.001083 0.050000 15.000065
v 15.001083 0.050000 -5.000000
v 15.001083 -0.050000 -5.000000
v 15.001083 0.050000 5.000000
v 15.001083 -0.050000 5.000000
v 5.000000 -0.050000 15.000065
v 5.000000 0.050000 15.000065
v 15.001083 -0.050000 15.000065
v 5.000000 0.050000 -15.001582
v 5.000000 -0.050000 -15.001582
v -5.000000 0.050000 -15.001582
v -5.000000 -0.050000 -15.001582
v -5.000000 0.050000 -5.001582
vn -0.0000 1.0000 -0.0000
vn -0.0000 -1.0000 -0.0000
vn -1.0000 -0.0000 -0.0000
vn 1.0000 -0.0000 -0.0000
vn -0.0000 -0.0000 -1.0000
vn -0.0000 -0.0000 1.0000
vt 0.625000 0.500000
vt 0.875000 0.500000
vt 0.875000 0.750000
vt 0.625000 0.750000
vt 0.125000 0.750000
vt 0.375000 0.750000
vt 0.375000 0.000000
vt 0.625000 0.000000
vt 0.625000 0.250000
vt 0.375000 0.250000
vt 0.125000 0.500000
vt 0.375000 0.500000
vt 0.625000 1.000000
vt 0.375000 1.000000
vt 0.000000 0.000000
s 0
f 1/1/1 5/2/1 7/3/1 3/4/1
f 8/5/2 4/6/2 16/6/2 9/5/2
f 8/7/3 7/8/3 5/9/3 6/10/3
f 6/11/2 2/12/2 4/6/2 8/5/2
f 4/6/2 2/12/2 13/12/2 15/6/2
f 1/1/4 2/12/4 20/12/4 19/1/4
f 7/8/3 8/7/3 9/7/3 10/8/3
f 2/12/5 1/1/5 12/1/5 13/12/5
f 13/12/4 12/1/4 14/4/4 15/6/4
f 16/6/6 17/4/6 10/13/6 9/14/6
f 1/1/1 3/4/1 14/4/1 12/1/1
f 3/4/1 7/3/1 10/3/1 17/4/1
f 4/15/4 3/15/4 17/15/4 16/15/4
f 4/6/2 15/6/2 18/6/2 16/6/2
f 15/6/4 14/4/4 11/4/4 18/6/4
f 14/4/1 3/4/1 17/4/1 11/4/1
f 22/10/5 21/9/5 19/1/5 20/12/5
f 5/2/4 7/3/4 23/3/4 21/2/4
f 6/10/3 5/9/3 21/9/3 22/10/3
f 2/12/2 6/11/2 22/11/2 20/12/2
f 5/2/1 1/1/1 19/1/1 21/2/1
o Cube.002
v 5.000000 0.050000 -4.900000
v 5.000000 5.050000 -4.900000
v -5.000000 0.050000 -4.900000
v -5.000000 5.050000 -4.900000
v 5.000000 0.050000 -5.000000
v 5.000000 5.050000 -5.000000
v -5.000000 0.050000 -5.000000
v -5.000000 5.050000 -5.000000
v 15.004268 0.050000 -4.900001
v 15.004268 5.050000 -4.900001
v 15.004268 0.050000 -5.000000
v 15.004268 5.050000 -5.000000
v 5.000000 6.050561 -4.900000
v -5.000000 6.050561 -4.900000
v 5.000000 6.050561 -5.000000
v -5.000000 6.050561 -5.000000
v 15.004268 6.050561 -4.900001
v 15.004268 6.050561 -5.000000
v -0.088711 0.050000 -5.000000
v -0.037040 0.050000 -4.900000
v 1.953661 0.050000 -4.900000
v 2.002631 3.969644 -5.000000
v -0.084793 3.976879 -5.000000
v -0.064744 3.952121 -4.900000
v 2.012238 3.948967 -4.900000
v 2.039587 0.050000 -5.000000
vn -0.0000 -0.0000 1.0000
vn -1.0000 -0.0000 -0.0000
vn -0.0000 -0.0000 -1.0000
vn -0.0000 -1.0000 -0.0000
vn 1.0000 -0.0000 -0.0000
vn -0.0000 1.0000 -0.0000
vt 0.375000 0.000000
vt 0.625000 0.000000
vt 0.625000 0.250000
vt 0.375000 0.250000
vt 0.375000 0.125926
vt 0.570106 0.126619
vt 0.569948 0.074694
vt 0.375000 0.076158
vt 0.625000 0.500000
vt 0.375000 0.500000
vt 0.625000 0.750000
vt 0.570982 0.675066
vt 0.571344 0.622880
vt 0.375000 0.622782
vt 0.125000 0.500000
vt 0.125000 0.624074
vt 0.625000 1.000000
vt 0.375000 0.750000
vt 0.375000 1.000000
vt 0.125000 0.750000
vt 0.875000 0.750000
vt 0.875000 0.500000
vt 0.375000 0.675990
vt 0.125000 0.673841
s 0
f 24/16/7 25/17/7 27/18/7 26/19/7 43/20/7 47/21/7 48/22/7 44/23/7
f 26/19/8 27/18/8 31/24/8 30/25/8
f 30/25/9 31/24/9 29/26/9 45/27/9 46/28/9 42/29/9
f 27/18/7 25/17/7 36/17/7 37/18/7
f 26/30/10 30/25/10 42/29/10 43/31/10
f 33/32/11 35/26/11 41/26/11 40/32/11
f 34/33/11 35/26/11 33/32/11 32/34/11
f 28/33/9 29/26/9 35/26/9 34/33/9
f 25/17/7 24/16/7 32/16/7 33/17/7
f 24/35/10 28/33/10 34/33/10 32/35/10
f 38/26/12 36/36/12 40/36/12 41/26/12
f 39/24/12 37/37/12 36/36/12 38/26/12
f 25/17/7 33/17/7 40/17/7 36/17/7
f 31/24/8 27/18/8 37/18/8 39/24/8
f 29/26/9 31/24/9 39/24/9 38/26/9
f 35/26/9 29/26/9 38/26/9 41/26/9
f 43/31/10 42/29/10 49/38/10 28/33/10 24/35/10 44/39/10
f 49/38/9 45/27/9 29/26/9 28/33/9
o Cube.001
v -5.000000 0.050000 5.000000
v -5.000000 5.050000 5.000000
v -5.000000 0.050000 -5.000000
v -5.000000 5.050000 -5.000000
v -4.900000 0.050000 5.000000
v -4.900000 5.050000 5.000000
v -4.900000 0.050000 -5.000000
v -4.900000 5.050000 -5.000000
v -5.000000 0.050000 15.000042
v -5.000000 5.050000 15.000042
v -4.900000 0.050000 15.000042
v -4.900000 5.050000 15.000042
v -5.000000 6.050309 5.000000
v -5.000000 6.050309 -5.000000
v -4.900000 6.050309 5.000000
v -4.900000 6.050309 -5.000000
v -5.000000 6.050309 15.000042
v -4.900000 6.050309 15.000042
vn -1.0000 -0.0000 -0.0000
vn -0.0000 -0.0000 -1.0000
vn 1.0000 -0.0000 -0.0000
vn -0.0000 -1.0000 -0.0000
vn -0.0000 -0.0000 1.0000
vn -0.0000 1.0000 -0.0000
vt 0.375000 0.000000
vt 0.625000 0.000000
vt 0.625000 0.250000
vt 0.375000 0.250000
vt 0.625000 0.500000
vt 0.375000 0.500000
vt 0.625000 0.750000
vt 0.375000 0.750000
vt 0.125000 0.500000
vt 0.125000 0.750000
vt 0.625000 1.000000
vt 0.375000 1.000000
vt 0.875000 0.750000
vt 0.875000 0.500000
s 0
f 50/40/13 51/41/13 53/42/13 52/43/13
f 52/43/14 53/42/14 57/44/14 56/45/14
f 56/45/15 57/44/15 55/46/15 54/47/15
f 57/44/14 53/42/14 63/42/14 65/44/14
f 52/48/16 56/45/16 54/47/16 50/49/16
f 51/41/13 59/41/13 66/41/13 62/41/13
f 60/47/17 61/46/17 59/50/17 58/51/17
f 54/47/15 55/46/15 61/46/15 60/47/15
f 51/41/13 50/40/13 58/40/13 59/41/13
f 50/49/16 54/47/16 60/47/16 58/49/16
f 64/46/18 62/52/18 66/52/18 67/46/18
f 65/44/18 63/53/18 62/52/18 64/46/18
f 55/46/15 57/44/15 65/44/15 64/46/15
f 61/46/15 55/46/15 64/46/15 67/46/15
f 59/50/17 61/46/17 67/46/17 66/50/17
f 53/42/13 51/41/13 62/41/13 63/42/13
o Cube.005
v 1.900000 0.050000 -4.800000
v 1.900000 4.050000 -4.800000
v 1.900000 0.050000 -5.000000
v 1.900000 4.050000 -5.000000
v 2.100000 0.050000 -4.800000
v 2.100000 4.050000 -4.800000
v 2.100000 0.050000 -5.000000
v 2.100000 4.050000 -5.000000
vn -1.0000 -0.0000 -0.0000
vn -0.0000 -0.0000 -1.0000
vn 1.0000 -0.0000 -0.0000
vn -0.0000 -0.0000 1.0000
vn -0.0000 -1.0000 -0.0000
vn -0.0000 1.0000 -0.0000
vt 0.375000 0.000000
vt 0.625000 0.000000
vt 0.625000 0.250000
vt 0.375000 0.250000
vt 0.625000 0.500000
vt 0.375000 0.500000
vt 0.625000 0.750000
vt 0.375000 0.750000
vt 0.625000 1.000000
vt 0.375000 1.000000
vt 0.125000 0.500000
vt 0.125000 0.750000
vt 0.875000 0.500000
vt 0.875000 0.750000
s 0
f 68/54/19 69/55/19 71/56/19 70/57/19
f 70/57/20 71/56/20 75/58/20 74/59/20
f 74/59/21 75/58/21 73/60/21 72/61/21
f 72/61/22 73/60/22 69/62/22 68/63/22
f 70/64/23 74/59/23 72/61/23 68/65/23
f 75/58/24 71/66/24 69/67/24 73/60/24
o Cube.006
v -0.100000 0.050000 -4.800000
v -0.100000 4.050000 -4.800000
v -0.100000 0.050000 -5.000000
v -0.100000 4.050000 -5.000000
v 0.100000 0.050000 -4.800000
v 0.100000 4.050000 -4.800000
v 0.100000 0.050000 -5.000000
v 0.100000 4.050000 -5.000000
vn -1.0000 -0.0000 -0.0000
vn -0.0000 -0.0000 -1.0000
vn 1.0000 -0.0000 -0.0000
vn -0.0000 -0.0000 1.0000
vn -0.0000 -1.0000 -0.0000
vn -0.0000 1.0000 -0.0000
vt 0.375000 0.000000
vt 0.625000 0.000000
vt 0.625000 0.250000
vt 0.375000 0.250000
vt 0.625000 0.500000
vt 0.375000 0.500000
vt 0.625000 0.750000
vt 0.375000 0.750000
vt 0.625000 1.000000
vt 0.375000 1.000000
vt 0.125000 0.500000
vt 0.125000 0.750000
vt 0.875000 0.500000
vt 0.875000 0.750000
s 0
f 76/68/25 77/69/25 79/70/25 78/71/25
f 78/71/26 79/70/26 83/72/26 82/73/26
f 82/73/27 83/72/27 81/74/27 80/75/27
f 80/75/28 81/74/28 77/76/28 76/77/28
f 78/78/29 82/73/29 80/75/29 76/79/29
f 83/72/30 79/80/30 77/81/30 81/74/30
o Cube.007
v 2.100000 3.850000 -4.800000
v 2.100000 4.050000 -4.800000
v -0.100000 3.850000 -4.800000
v -0.100000 4.050000 -4.800000
v 2.100000 3.850000 -5.000000
v 2.100000 4.050000 -5.000000
v -0.100000 3.850000 -5.000000
v -0.100000 4.050000 -5.000000
vn -0.0000 -0.0000 1.0000
vn -1.0000 -0.0000 -0.0000
vn -0.0000 -0.0000 -1.0000
vn 1.0000 -0.0000 -0.0000
vn -0.0000 -1.0000 -0.0000
vn -0.0000 1.0000 -0.0000
vt 0.375000 0.000000
vt 0.625000 0.000000
vt 0.625000 0.250000
vt 0.375000 0.250000
vt 0.625000 0.500000
vt 0.375000 0.500000
vt 0.625000 0.750000
vt 0.375000 0.750000
vt 0.625000 1.000000
vt 0.375000 1.000000
vt 0.125000 0.500000
vt 0.125000 0.750000
vt 0.875000 0.500000
vt 0.875000 0.750000
s 0
f 84/82/31 85/83/31 87/84/31 86/85/31
f 86/85/32 87/84/32 91/86/32 90/87/32
f 90/87/33 91/86/33 89/88/33 88/89/33
f 88/89/34 89/88/34 85/90/34 84/91/34
f 86/92/35 90/87/35 88/89/35 84/93/35
f 91/86/36 87/94/36 85/95/36 89/88/36
o Cube.010
v 5.000000 0.050000 15.000000
v 5.000000 5.050000 15.000000
v -5.000000 0.050000 15.000000
v -5.000000 5.050000 15.000000
v 5.000000 0.050000 14.900000
v 5.000000 5.050000 14.900000
v -5.000000 0.050000 14.900000
v -5.000000 5.050000 14.900000
v 15.004268 0.050000 14.999999
v 15.004268 5.050000 14.999999
v 15.004268 0.050000 14.900000
v 15.004268 5.050000 14.900000
v 5.000000 6.050561 15.000000
v -5.000000 6.050561 15.000000
v 5.000000 6.050561 14.900000
v -5.000000 6.050561 14.900000
v 15.004268 6.050561 14.999999
v 15.004268 6.050561 14.900000
vn -0.0000 -0.0000 1.0000
vn -1.0000 -0.0000 -0.0000
vn -0.0000 -0.0000 -1.0000
vn -0.0000 -1.0000 -0.0000
vn 1.0000 -0.0000 -0.0000
vn -0.0000 1.0000 -0.0000
vt 0.375000 0.000000
vt 0.625000 0.000000
vt 0.625000 0.250000
vt 0.375000 0.250000
vt 0.625000 0.500000
vt 0.375000 0.500000
vt 0.625000 0.750000
vt 0.375000 0.750000
vt 0.125000 0.500000
vt 0.125000 0.750000
vt 0.625000 1.000000
vt 0.375000 1.000000
vt 0.875000 0.750000
vt 0.875000 0.500000
s 0
f 92/96/37 93/97/37 95/98/37 94/99/37
f 94/99/38 95/98/38 99/100/38 98/101/38
f 98/101/39 99/100/39 97/102/39 96/103/39
f 95/98/37 93/97/37 104/97/37 105/98/37
f 94/104/40 98/101/40 96/103/40 92/105/40
f 101/106/41 103/102/41 109/102/41 108/106/41
f 102/103/41 103/102/41 101/106/41 100/107/41
f 96/103/39 97/102/39 103/102/39 102/103/39
f 93/97/37 92/96/37 100/96/37 101/97/37
f 92/105/40 96/103/40 102/103/40 100/105/40
f 106/102/42 104/108/42 108/108/42 109/102/42
f 107/100/42 105/109/42 104/108/42 106/102/42
f 93/97/37 101/97/37 108/97/37 104/97/37
f 99/100/38 95/98/38 105/98/38 107/100/38
f 97/102/39 99/100/39 107/100/39 106/102/39
f 103/102/39 97/102/39 106/102/39 109/102/39
o Cube.009
v 14.868553 0.050000 5.000000
v 14.868553 5.050000 5.000000
v 14.868553 0.050000 -5.000000
v 14.868553 5.050000 -5.000000
v 14.968554 0.050000 5.000000
v 14.968554 5.050000 5.000000
v 14.968554 0.050000 -5.000000
v 14.968554 5.050000 -5.000000
v 14.868553 0.050000 15.000042
v 14.868553 5.050000 15.000042
v 14.968554 0.050000 15.000042
v 14.968554 5.050000 15.000042
v 14.868553 6.050309 5.000000
v 14.868553 6.050309 -5.000000
v 14.968554 6.050309 5.000000
v 14.968554 6.050309 -5.000000
v 14.868553 6.050309 15.000042
v 14.968554 6.050309 15.000042
vn -1.0000 -0.0000 -0.0000
vn -0.0000 -0.0000 -1.0000
vn 1.0000 -0.0000 -0.0000
vn -0.0000 -1.0000 -0.0000
vn -0.0000 -0.0000 1.0000
vn -0.0000 1.0000 -0.0000
vt 0.375000 0.000000
vt 0.625000 0.000000
vt 0.625000 0.250000
vt 0.375000 0.250000
vt 0.625000 0.500000
vt 0.375000 0.500000
vt 0.625000 0.750000
vt 0.375000 0.750000
vt 0.125000 0.500000
vt 0.125000 0.750000
vt 0.625000 1.000000
vt 0.375000 1.000000
vt 0.875000 0.750000
vt 0.875000 0.500000
s 0
f 110/110/43 111/111/43 113/112/43 112/113/43
f 112/113/44 113/112/44 117/114/44 116/115/44
f 116/115/45 117/114/45 115/116/45 114/117/45
f 117/114/44 113/112/44 123/112/44 125/114/44
f 112/118/46 116/115/46 114/117/46 110/119/46
f 111/111/43 119/111/43 126/111/43 122/111/43
f 120/117/47 121/116/47 119/120/47 118/121/47
f 114/117/45 115/116/45 121/116/45 120/117/45
f 111/111/43 110/110/43 118/110/43 119/111/43
f 110/119/46 114/117/46 120/117/46 118/119/46
f 124/116/48 122/122/48 126/122/48 127/116/48
f 125/114/48 123/123/48 122/122/48 124/116/48
f 115/116/45 117/114/45 125/114/45 124/116/45
f 121/116/45 115/116/45 124/116/45 127/116/45
f 119/120/47 121/116/47 127/116/47 126/120/47
f 113/112/43 111/111/43 122/111/43 123/112/43
o Cube.013
v 5.000000 0.000000 14.999999
v 5.000000 0.200000 14.999999
v -5.000000 0.000000 15.000000
v -5.000000 0.200000 15.000000
v 5.000000 0.000000 14.799999
v 5.000000 0.200000 14.799999
v -5.000000 0.000000 14.800000
v -5.000000 0.200000 14.800000
v 14.850389 0.000000 14.999999
v 14.850389 0.200000 14.999999
v 14.850389 0.000000 14.799999
v 14.850389 0.200000 14.799999
v -5.000000 0.000000 4.999999
v -5.000000 0.200000 4.999999
v -5.000000 0.000000 -5.000000
v -5.000000 0.200000 -5.000000
v -4.800000 0.000000 4.999999
v -4.800000 0.200000 4.999999
v -4.800001 0.000000 -5.000000
v -4.800001 0.200000 -5.000000
v -5.000000 0.000000 14.902284
v -5.000000 0.200000 14.902284
v -4.800001 0.000000 14.902284
v -4.800001 0.200000 14.902284
v 5.000000 0.000000 -4.800001
v 5.000000 0.200000 -4.800001
v -5.000000 0.000000 -4.800001
v -5.000000 0.200000 -4.800001
v 5.000000 0.000000 -5.000000
v 5.000000 0.200000 -5.000000
v -5.000000 0.000000 -5.000000
v -5.000000 0.200000 -5.000000
v 14.850390 0.000000 -4.800001
v 14.850390 0.200000 -4.800001
v 14.850390 0.000000 -5.000000
v 14.850390 0.200000 -5.000000
v 14.759751 0.000000 4.999998
v 14.759751 0.200000 4.999998
v 14.759750 0.000000 -5.000000
v 14.759750 0.200000 -5.000000
v 14.959751 0.000000 4.999998
v 14.959751 0.200000 4.999998
v 14.959750 0.000000 -5.000000
v 14.959750 0.200000 -5.000000
v 14.759750 0.000000 14.902284
v 14.759750 0.200000 14.902284
v 14.959751 0.000000 14.902284
v 14.959751 0.200000 14.902284
v 1.969819 0.000000 -5.000000
v 0.044055 0.000000 -5.000000
v 5.185990 0.200000 -4.800001
v 0.032164 0.200000 -5.000000
v 1.953070 0.200000 -5.000000
v 1.951923 0.200000 -4.800001
v 0.014764 0.200000 -4.800001
v 5.325504 0.200000 -5.000000
v 5.185990 0.000000 -4.800001
v 0.005961 0.000000 -4.800001
v 1.945366 0.000000 -4.800001
vn -0.0000 -0.0000 -1.0000
vn 1.0000 -0.0000 -0.0000
vn -0.0000 -0.0000 1.0000
vn -0.0000 -1.0000 -0.0000
vn -0.0000 1.0000 -0.0000
vn -1.0000 -0.0000 -0.0000
vt 0.375000 0.000000
vt 0.375000 0.250000
vt 0.625000 0.250000
vt 0.625000 0.000000
vt 0.375000 0.500000
vt 0.625000 0.500000
vt 0.375000 0.750000
vt 0.625000 0.750000
vt 0.875000 0.750000
vt 0.125000 0.500000
vt 0.125000 0.750000
vt 0.875000 0.500000
vt 0.375000 1.000000
vt 0.625000 1.000000
vt 0.375000 0.076366
vt 0.625000 0.076202
vt 0.375000 0.626101
vt 0.625000 0.625804
vt 0.625000 0.750000
vt 0.125000 0.625149
vt 0.875000 0.625369
vt 0.125000 0.673634
vt 0.375000 0.674245
vt 0.625000 0.124631
vt 0.375000 0.124851
vt 0.875000 0.673798
vt 0.625000 0.673827
s 0
f 128/124/49 130/125/49 131/126/49 129/127/49
f 130/125/50 134/128/50 135/129/50 131/126/50
f 134/128/51 132/130/51 133/131/51 135/129/51
f 129/132/52 133/131/52 139/131/52 137/132/52
f 130/133/53 128/134/53 132/130/53 134/128/53
f 135/129/52 133/131/52 129/132/52 131/135/52
f 138/130/54 136/136/54 137/137/54 139/131/54
f 133/131/51 132/130/51 138/130/51 139/131/51
f 128/124/49 129/127/49 137/127/49 136/124/49
f 132/130/53 128/134/53 136/134/53 138/130/53
f 140/124/54 141/127/54 143/126/54 142/125/54
f 142/125/49 143/126/49 147/129/49 146/128/49
f 146/128/50 147/129/50 145/131/50 144/130/50
f 141/127/54 140/124/54 148/124/54 149/127/54
f 142/133/52 146/128/52 144/130/52 140/134/52
f 147/129/53 143/135/53 141/132/53 145/131/53
f 150/130/51 151/131/51 149/137/51 148/136/51
f 140/134/52 144/130/52 150/130/52 148/134/52
f 145/131/53 141/132/53 149/132/53 151/131/53
f 144/130/50 145/131/50 151/131/50 150/130/50
f 152/124/49 186/138/49 181/139/49 153/127/49
f 154/125/50 158/128/50 159/129/50 155/126/50
f 158/128/51 177/140/51 179/141/51 159/129/51
f 153/132/52 157/131/52 183/142/52 178/132/52
f 154/133/53 185/143/53 177/140/53 158/128/53
f 159/129/52 179/141/52 182/144/52 155/135/52
f 162/130/54 160/136/54 161/137/54 163/131/54
f 157/131/51 156/130/51 162/130/51 163/131/51 183/142/51
f 152/124/49 153/127/49 178/127/49 184/124/49
f 156/130/53 152/134/53 184/134/53 160/134/53 162/130/53
f 164/124/54 165/127/54 167/126/54 166/125/54
f 166/125/49 167/126/49 171/129/49 170/128/49
f 170/128/50 171/129/50 169/131/50 168/130/50
f 165/127/54 164/124/54 172/124/54 173/127/54
f 166/133/52 170/128/52 168/130/52 164/134/52
f 171/129/53 167/135/53 165/132/53 169/131/53
f 174/130/51 175/131/51 173/137/51 172/136/51
f 164/134/52 168/130/52 174/130/52 172/134/52
f 169/131/53 165/132/53 173/132/53 175/131/53
f 168/130/50 169/131/50 175/131/50 174/130/50
f 177/140/53 185/143/53 186/145/53 176/146/53
f 176/146/53 186/145/53 152/134/53 156/130/53
f 182/147/49 185/148/49 154/125/49 155/126/49
f 181/149/52 180/150/52 157/131/52 153/132/52
f 180/150/51 176/146/51 156/130/51 157/131/51
f 178/132/52 183/142/52 163/131/52 161/132/52
f 184/124/49 178/127/49 161/127/49 160/124/49
o Cube.012
v 5.000000 6.050000 -5.000000
v 5.000000 5.950000 -5.000000
v 5.000000 6.050000 5.000000
v 5.000000 5.950000 5.000000
v -5.000000 6.050000 -5.000000
v -5.000000 5.950000 -5.000000
v -5.000000 6.050000 5.000000
v -5.000000 5.950000 5.000000
v -5.000000 5.950000 15.000065
v -5.000000 6.050000 15.000065
v 15.001083 6.050000 15.000065
v 15.001083 6.050000 -5.000000
v 15.001083 5.950000 -5.000000
v 15.001083 6.050000 5.000000
v 15.001083 5.950000 5.000000
v 5.000000 5.950000 15.000065
v 5.000000 6.050000 15.000065
v 15.001083 5.950000 15.000065
vn -0.0000 1.0000 -0.0000
vn -0.0000 -1.0000 -0.0000
vn -1.0000 -0.0000 -0.0000
vn -0.0000 -0.0000 -1.0000
vn 1.0000 -0.0000 -0.0000
vn -0.0000 -0.0000 1.0000
vt 0.625000 0.500000
vt 0.875000 0.500000
vt 0.875000 0.750000
vt 0.625000 0.750000
vt 0.125000 0.750000
vt 0.375000 0.750000
vt 0.375000 0.000000
vt 0.625000 0.000000
vt 0.625000 0.250000
vt 0.375000 0.250000
vt 0.125000 0.500000
vt 0.375000 0.500000
vt 0.625000 1.000000
vt 0.375000 1.000000
vt 0.000000 0.000000
s 0
f 187/151/55 191/152/55 193/153/55 189/154/55
f 194/155/56 190/156/56 202/156/56 195/155/56
f 194/157/57 193/158/57 191/159/57 192/160/57
f 192/161/56 188/162/56 190/156/56 194/155/56
f 190/156/56 188/162/56 199/162/56 201/156/56
f 192/160/58 191/159/58 187/151/58 188/162/58
f 193/158/57 194/157/57 195/157/57 196/158/57
f 188/162/58 187/151/58 198/151/58 199/162/58
f 199/162/59 198/151/59 200/154/59 201/156/59
f 202/156/60 203/154/60 196/163/60 195/164/60
f 187/151/55 189/154/55 200/154/55 198/151/55
f 189/154/55 193/153/55 196/153/55 203/154/55
f 190/165/59 189/165/59 203/165/59 202/165/59
f 190/156/56 201/156/56 204/156/56 202/156/56
f 201/156/59 200/154/59 197/154/59 204/156/59
f 200/154/55 189/154/55 203/154/55 197/154/55
